<svg fill="none" height="24" viewBox="0 0 24 24" width="24" xmlns="http://www.w3.org/2000/svg"><path d="m12 0c-6.62679 0-12 5.37321-12 12 0 6.6268 5.37321 12 12 12 6.6268 0 12-5.3732 12-12 0-6.62679-5.3732-12-12-12zm5.767 9.04554c.008.12589.008.25714.008.38571 0 3.93215-2.9946 8.46165-8.46696 8.46165-1.6875 0-3.25179-.4902-4.56965-1.334.24107.0268.47143.0375.71786.0375 1.39286 0 2.67321-.4714 3.69375-1.2696-1.30714-.0268-2.40536-.8839-2.78036-2.0625.45804.067.87054.067 1.34197-.0536-.67306-.1367-1.27802-.5023-1.7121-1.0345-.43409-.5322-.67053-1.1983-.66915-1.8851v-.0375c.39375.2223.85714.3589 1.34196.3777-.40756-.2717-.74181-.63966-.97309-1.0714-.23129-.43173-.35247-.91387-.3528-1.40365 0-.55446.14464-1.06071.40446-1.5.74706.91965 1.67928 1.67181 2.73607 2.20759 1.05679.53577 2.21444.84318 3.39784.90223-.4205-2.02232 1.0902-3.65893 2.9063-3.65893.8571 0 1.6285.35893 2.1723.9375.6723-.12589 1.3152-.37768 1.8884-.71518-.2223.6884-.6884 1.26965-1.3072 1.63661.6-.06428 1.1786-.23036 1.7143-.46339-.4044.59464-.9107 1.12232-1.4919 1.54286z" fill="#fff"/></svg>