<svg fill="none" height="24" viewBox="0 0 24 24" width="24" xmlns="http://www.w3.org/2000/svg"><path clip-rule="evenodd" d="m7.05273.072c1.27963-.0589091 1.68763-.072 4.94727-.072 3.2596 0 3.6676.0141818 4.9462.072 1.2785.057818 2.1513.261818 2.9149.557455.7996.302181 1.5251.774545 2.1251 1.385455.6109.59891 1.0822 1.32327 1.3833 2.124.2967.76364.4996 1.63636.5585 2.91273.0589 1.28182.072 1.68982.072 4.94836 0 3.2596-.0142 3.6676-.072 4.9473-.0578 1.2763-.2618 2.1491-.5585 2.9127-.3011.8008-.7732 1.5264-1.3833 2.1262-.6.6109-1.3255 1.0822-2.1251 1.3833-.7636.2967-1.6364.4996-2.9127.5585-1.2808.0589-1.6888.072-4.9484.072-3.25964 0-3.66764-.0142-4.94727-.072-1.27637-.0578-2.14909-.2618-2.91273-.5585-.80081-.3012-1.52638-.7732-2.12618-1.3833-.6105-.5993-1.082931-1.3245-1.384365-2.1251-.295637-.7636-.498546-1.6364-.557455-2.9127-.0589091-1.2819-.072-1.6899-.072-4.9484 0-3.25964.0141818-3.66764.072-4.94618.057818-1.27855.261818-2.15127.557455-2.91491.301879-.80064.774675-1.52584 1.385455-2.12509.59895-.61036 1.32379-1.082791 2.124-1.384365.76364-.295637 1.63636-.498546 2.91273-.557455zm9.79637 2.16c-1.2655-.05782-1.6451-.06982-4.8491-.06982s-3.58364.012-4.84909.06982c-1.17055.05345-1.80546.24873-2.22873.41345-.55963.21819-.96.47673-1.38.89673-.39813.38733-.70453.85886-.89673 1.38-.16472.42327-.36 1.05818-.41345 2.22873-.05782 1.26545-.06982 1.64509-.06982 4.84909s.012 3.5836.06982 4.8491c.05345 1.1705.24873 1.8054.41345 2.2287.192.5204.49855.9927.89673 1.38.38727.3982.85964.7047 1.38.8967.42327.1648 1.05818.36 2.22873.4135 1.26545.0578 1.644.0698 4.84909.0698 3.2051 0 3.5836-.012 4.8491-.0698 1.1705-.0535 1.8054-.2487 2.2287-.4135.5597-.2181.96-.4767 1.38-.8967.3982-.3873.7047-.8596.8967-1.38.1648-.4233.36-1.0582.4135-2.2287.0578-1.2655.0698-1.6451.0698-4.8491s-.012-3.58364-.0698-4.84909c-.0535-1.17055-.2487-1.80546-.4135-2.22873-.2181-.55963-.4767-.96-.8967-1.38-.3873-.3981-.8589-.7045-1.38-.89673-.4233-.16472-1.0582-.36-2.2287-.41345zm-6.3818 13.4673c.856.3563 1.8091.4044 2.6966.136.8875-.2683 1.6543-.8365 2.1695-1.6074.5151-.7709.7467-1.6968.655-2.6194-.0916-.9227-.5008-1.78489-1.1575-2.43941-.4186-.41839-.9249-.73875-1.4822-.93802s-1.1519-.27249-1.7409-.2144c-.589.0581-1.1578.24607-1.66547.55038-.50765.30431-.94152.7174-1.27036 1.20952-.32885.49213-.54449 1.05103-.63141 1.63643-.08691.5855-.04294 1.183.12876 1.7494.17169.5664.46684 1.0877.86419 1.5264.39736.4387.88703.7838 1.43379 1.0105zm-2.82875-8.06075c.57275-.57276 1.25271-1.02709 2.00105-1.33706.7483-.30998 1.5504-.46952 2.3604-.46952s1.6121.15954 2.3604.46952c.7483.30997 1.4283.7643 2.0011 1.33706.5727.57275 1.027 1.25271 1.337 2.00105.31.7483.4695 1.5504.4695 2.3604s-.1595 1.6121-.4695 2.3604-.7643 1.4283-1.337 2.0011c-1.1568 1.1567-2.7256 1.8065-4.3615 1.8065s-3.20472-.6498-4.36145-1.8065c-1.15673-1.1568-1.80658-2.7256-1.80658-4.3615s.64985-3.20472 1.80658-4.36145zm11.89745-.888c.1419-.13389.2556-.2949.3341-.47349.0786-.17859.1206-.37113.1234-.56623.0029-.19509-.0334-.38878-.1068-.56958-.0733-.18081-.1822-.34506-.3202-.48303-.138-.13796-.3022-.24685-.483-.3202s-.3745-.10968-.5696-.10684c-.1951.00285-.3876.04481-.5662.1234s-.3396.19221-.4735.33415c-.2604.27603-.403.64268-.3974 1.0221.0055.37943.1587.74177.427 1.01009s.6307.42151 1.0101.42704.7461-.13703 1.0221-.39741z" fill="#fff" fill-rule="evenodd"/></svg>