<svg fill="none" height="22" viewBox="0 0 81 22" width="81" xmlns="http://www.w3.org/2000/svg"><path d="m6.484 10.304c.68133 0 1.26933-.084 1.764-.252.49467-.17733.90067-.41533 1.218-.714.31733-.308.5507-.66733.7-1.078s.224-.85867.224-1.344c0-.96133-.322-1.708-.966-2.24-.63467-.532-1.60533-.798-2.912-.798h-2.184v6.426zm9.842 10.696h-3.794c-.7093 0-1.2227-.2707-1.54-.812l-3.864-6.23c-.15867-.2427-.336-.42-.532-.532-.18667-.112-.46667-.168-.84-.168h-1.428v7.742h-4.2v-20.314001h6.384c1.41867 0 2.632.149333 3.64.448001 1.008.28933 1.834.69533 2.478 1.218s1.1153 1.148 1.414 1.876c.2987.71867.448 1.512.448 2.38 0 .672-.098 1.31133-.294 1.918-.1867.59733-.462 1.14333-.826 1.638-.364.4947-.812.9333-1.344 1.316s-1.1387.6907-1.82.924c.2707.1493.5227.3313.756.546.2333.2053.4433.4527.63.742zm10.1535-6.034c-.9427.0467-1.7267.1307-2.352.252-.6253.112-1.1247.2613-1.498.448-.364.1867-.6253.4013-.784.644-.1493.2333-.224.49-.224.77 0 .56.154.9567.462 1.19.3173.2333.756.35 1.316.35.644 0 1.1993-.112 1.666-.336.476-.2333.9473-.5927 1.414-1.078zm-7.868-6.398c.8493-.76533 1.7873-1.33467 2.814-1.708 1.0267-.38267 2.1373-.574 3.332-.574.8587 0 1.624.14 2.296.42.6813.28 1.2553.672 1.722 1.176.476.49467.84 1.08733 1.092 1.778.252.6907.378 1.4467.378 2.268v9.072h-1.764c-.364 0-.644-.0513-.84-.154-.1867-.1027-.3407-.3173-.462-.644l-.308-.924c-.364.3173-.7187.5973-1.064.84-.336.2427-.686.448-1.05.616-.364.1587-.756.28-1.176.364-.4107.084-.8727.126-1.386.126-.6347 0-1.2133-.084-1.736-.252s-.9753-.4153-1.358-.742c-.3733-.336-.6627-.7513-.868-1.246s-.308-1.064-.308-1.708c0-.532.1353-1.064.406-1.596s.7327-1.0127 1.386-1.442c.6627-.4387 1.54-.798 2.632-1.078 1.1013-.2893 2.478-.4527 4.13-.49v-.742c0-.9053-.1913-1.568-.574-1.988-.3827-.42933-.9333-.644-1.652-.644-.532 0-.9753.06533-1.33.196-.3547.12133-.6673.25667-.938.406-.2613.14-.5087.2753-.742.406-.2333.1213-.504.182-.812.182-.2707 0-.4993-.0653-.686-.196-.1773-.14-.3267-.30333-.448-.49zm28.9807-2.002-5.67 14.434h-3.5l-5.67-14.434h3.206c.28 0 .5133.06533.7.196.1866.13067.3173.29867.392.504l2.422 7.14c.1586.4853.2986.9613.42 1.428.1213.4573.2286.9193.322 1.386.1026-.4667.2146-.9287.336-1.386.1306-.4667.28-.9427.448-1.428l2.506-7.14c.0653-.20533.1913-.37333.378-.504.1866-.13067.406-.196.658-.196zm11.7348 5.516c0-.4013-.056-.784-.168-1.148-.1027-.364-.2707-.686-.504-.966s-.5273-.49933-.882-.658c-.3547-.168-.7793-.252-1.274-.252-.924 0-1.6473.26133-2.17.784-.5227.5227-.8633 1.2693-1.022 2.24zm-6.076 2.296c.1213 1.3533.504 2.3427 1.148 2.968.6533.6253 1.5027.938 2.548.938.532 0 .9893-.0607 1.372-.182.392-.1307.7327-.2707 1.022-.42.2987-.1587.5647-.2987.798-.42.2427-.1307.4807-.196.714-.196.2987 0 .532.112.7.336l1.12 1.4c-.4107.476-.8633.8727-1.358 1.19-.4947.308-1.008.5553-1.54.742-.532.1773-1.0687.2987-1.61.364-.5413.0747-1.064.112-1.568.112-1.008 0-1.9507-.1633-2.828-.49-.868-.336-1.6287-.826-2.282-1.47-.644-.6533-1.1527-1.4607-1.526-2.422s-.56-2.0767-.56-3.346c0-.98.1587-1.904.476-2.772.3267-.868.7933-1.624 1.4-2.268s1.344-1.15267 2.212-1.526c.868-.38267 1.848-.574 2.94-.574.924 0 1.7733.14933 2.548.448.784.28933 1.456.714 2.016 1.274.5693.56 1.008 1.25067 1.316 2.072.3173.812.476 1.7407.476 2.786 0 .2893-.014.5273-.042.714s-.0747.336-.14.448-.154.1913-.266.238c-.112.0373-.2567.056-.434.056zm17.1957-14.252001v11.844001h.644c.2427 0 .434-.0327.574-.098.14-.0747.28-.2053.42-.392l3.192-4.256c.1587-.21467.336-.378.532-.49.2054-.112.462-.168.77-.168h3.528l-4.144 5.264c-.3266.4387-.7046.784-1.134 1.036.2147.1493.4014.322.56.518.1587.196.3127.4153.462.658l4.466 6.958h-3.472c-.2986 0-.5553-.0467-.77-.14-.2146-.1027-.392-.28-.532-.532l-3.248-5.306c-.1306-.224-.266-.3687-.406-.434s-.35-.098-.63-.098h-.812v6.51h-3.864v-20.874001z" fill="#64629d"/></svg>