<svg fill="none" height="19" viewBox="0 0 68 19" width="68" xmlns="http://www.w3.org/2000/svg"><path d="m6.272 8.832c.584 0 1.088-.072 1.512-.216.424-.152.772-.356 1.044-.612.272-.264.472-.572.6-.924s.192-.736.192-1.152c0-.824-.276-1.464-.828-1.92-.544-.456-1.376-.684-2.496-.684h-1.872v5.508zm8.436 9.168h-3.252c-.608 0-1.048-.232-1.32-.696l-3.312-5.34c-.136-.208-.288-.36-.456-.456-.16-.096-.4-.144-.72-.144h-1.224v6.636h-3.6v-17.412001h5.472c1.216 0 2.256.128 3.12.384001.864.248 1.572.596 2.124 1.044s.956.984 1.212 1.608c.256.616.384 1.296.384 2.04 0 .576-.084 1.124-.252 1.644-.16.512-.396.98-.708 1.404s-.696.8-1.152 1.128-.976.592-1.56.792c.232.128.448.284.648.468.2.176.38.388.54.636zm8.223-5.172c-.808.04-1.48.112-2.016.216-.536.096-.964.224-1.284.384-.312.16-.536.344-.672.552-.128.2-.192.42-.192.66 0 .48.132.82.396 1.02.272.2.648.3 1.128.3.552 0 1.028-.096 1.428-.288.408-.2.812-.508 1.212-.924zm-6.744-5.484c.728-.656 1.532-1.144 2.412-1.464.88-.328 1.832-.492 2.856-.492.736 0 1.392.12 1.968.36.584.24 1.076.576 1.476 1.008.408.424.72.932.936 1.524s.324 1.24.324 1.944v7.776h-1.512c-.312 0-.552-.044-.72-.132-.16-.088-.292-.272-.396-.552l-.264-.792c-.312.272-.616.512-.912.72-.288.208-.588.384-.9.528-.312.136-.648.24-1.008.312-.352.072-.748.108-1.188.108-.544 0-1.04-.072-1.488-.216s-.836-.356-1.164-.636c-.32-.288-.568-.644-.744-1.068s-.264-.912-.264-1.464c0-.456.116-.912.348-1.368s.628-.868 1.188-1.236c.568-.376 1.32-.684 2.256-.924.944-.248 2.124-.388 3.54-.42v-.636c0-.776-.164-1.344-.492-1.704-.328-.368-.8-.552-1.416-.552-.456 0-.836.056-1.14.168-.304.104-.572.22-.804.348-.224.12-.436.236-.636.348-.2.104-.432.156-.696.156-.232 0-.428-.056-.588-.168-.152-.12-.28-.26-.384-.42zm24.3606-1.716-4.86 12.372h-3l-4.86-12.372h2.748c.24 0 .44.056.6.168s.272.256.336.432l2.076 6.12c.136.416.256.824.36 1.224.104.392.196.788.276 1.188.088-.4.184-.796.288-1.188.112-.4.24-.808.384-1.224l2.148-6.12c.056-.176.164-.32.324-.432s.348-.168.564-.168zm9.5784 4.728c0-.344-.048-.672-.144-.984-.088-.312-.232-.588-.432-.828s-.452-.428-.756-.564c-.304-.144-.668-.216-1.092-.216-.792 0-1.412.224-1.86.672s-.74 1.088-.876 1.92zm-5.208 1.968c.104 1.16.432 2.008.984 2.544.56.536 1.288.804 2.184.804.456 0 .848-.052 1.176-.156.336-.112.628-.232.876-.36.256-.136.484-.256.684-.36.208-.112.412-.168.612-.168.256 0 .456.096.6.288l.96 1.2c-.352.408-.74.748-1.164 1.02-.424.264-.864.476-1.32.636-.456.152-.916.256-1.38.312-.464.064-.912.096-1.344.096-.864 0-1.672-.14-2.424-.42-.744-.288-1.396-.708-1.956-1.26-.552-.56-.988-1.252-1.308-2.076s-.48-1.78-.48-2.868c0-.84.136-1.632.408-2.376.28-.744.68-1.392 1.2-1.944s1.152-.988 1.896-1.308c.744-.328 1.584-.492 2.52-.492.792 0 1.52.128 2.184.384.672.248 1.248.612 1.728 1.092.488.48.864 1.072 1.128 1.776.272.696.408 1.492.408 2.388 0 .248-.012.452-.036.612s-.064.288-.12.384-.132.164-.228.204c-.096.032-.22.048-.372.048zm14.2592-12.216001v10.152001h.552c.208 0 .372-.028.492-.084.12-.064.24-.176.36-.336l2.736-3.648c.136-.184.288-.324.456-.42.176-.096.396-.144.66-.144h3.024l-3.552 4.512c-.28.376-.604.672-.972.888.184.128.344.276.48.444s.268.356.396.564l3.828 5.964h-2.976c-.256 0-.476-.04-.66-.12-.184-.088-.336-.24-.456-.456l-2.784-4.548c-.112-.192-.228-.316-.348-.372s-.3-.084-.54-.084h-.696v5.58h-3.312v-17.892001z" fill="#fff"/></svg>