<svg fill="none" height="6" viewBox="0 0 19 6" width="19" xmlns="http://www.w3.org/2000/svg"><path d="m.968539 5h.798001v-1.854c0-.42-.072-1.038-.114-1.458h.024l.354 1.044.69 1.866h.51l.684-1.866.36-1.044h.03c-.048.42-.114 1.038-.114 1.458v1.854h.81v-4.446h-.984l-.738 2.082c-.096.276-.174.57-.27.852h-.03c-.09-.282-.174-.576-.27-.852l-.756-2.082h-.984001zm5.241091 0h2.79v-.744h-1.902v-1.188h1.56v-.744h-1.56v-1.026h1.836v-.744h-2.724zm3.81137 0h.84v-1.782c0-.51-.066-1.068-.108-1.548h.03l.45.954 1.284 2.376h.9v-4.446h-.84v1.776c0 .504.072 1.092.114 1.554h-.03l-.444-.96-1.29-2.37h-.906zm6.3182.084c1.086 0 1.716-.606 1.716-2.082v-2.448h-.852v2.526c0 .924-.336 1.236-.864 1.236-.516 0-.84-.312-.84-1.236v-2.526h-.888v2.448c0 1.476.648 2.082 1.728 2.082z" fill="#64629d"/></svg>